<?xml version="1.0" encoding="UTF-8" standalone="no"?>
<!-- Created with Inkscape (http://www.inkscape.org/) -->

<svg
   xmlns:dc="http://purl.org/dc/elements/1.1/"
   xmlns:cc="http://creativecommons.org/ns#"
   xmlns:rdf="http://www.w3.org/1999/02/22-rdf-syntax-ns#"
   xmlns:svg="http://www.w3.org/2000/svg"
   xmlns="http://www.w3.org/2000/svg"
   xmlns:xlink="http://www.w3.org/1999/xlink"
   xmlns:sodipodi="http://sodipodi.sourceforge.net/DTD/sodipodi-0.dtd"
   xmlns:inkscape="http://www.inkscape.org/namespaces/inkscape"
   width="1280"
   height="1024"
   id="svg2"
   version="1.1"
   inkscape:version="0.48.0 r9654"
   sodipodi:docname="clouds.svg">
  <defs
     id="defs4">
    <linearGradient
       id="linearGradient4271">
      <stop
         style="stop-color:#90eaff;stop-opacity:1;"
         offset="0"
         id="stop4273" />
      <stop
         id="stop4279"
         offset="0.39990917"
         style="stop-color:#a9e9f5;stop-opacity:1;" />
      <stop
         style="stop-color:#ffffff;stop-opacity:0.8214286;"
         offset="1"
         id="stop4275" />
    </linearGradient>
    <linearGradient
       id="linearGradient4255">
      <stop
         style="stop-color:#edfbfd;stop-opacity:1;"
         offset="0"
         id="stop4257" />
      <stop
         style="stop-color:#fbfffe;stop-opacity:0.9910714;"
         offset="1"
         id="stop4259" />
    </linearGradient>
    <linearGradient
       id="linearGradient3801">
      <stop
         style="stop-color:#96dcee;stop-opacity:1;"
         offset="0"
         id="stop3803" />
      <stop
         style="stop-color:#e5f8f9;stop-opacity:1;"
         offset="1"
         id="stop3805" />
    </linearGradient>
    <linearGradient
       id="linearGradient3003">
      <stop
         style="stop-color:#c4fbfe;stop-opacity:1;"
         offset="0"
         id="stop3005" />
      <stop
         style="stop-color:#faffff;stop-opacity:0;"
         offset="1"
         id="stop3007" />
    </linearGradient>
    <linearGradient
       inkscape:collect="always"
       xlink:href="#linearGradient3003"
       id="linearGradient3009"
       x1="335.71426"
       y1="198.07646"
       x2="334.28571"
       y2="783.79077"
       gradientUnits="userSpaceOnUse"
       gradientTransform="matrix(3.2593577,0,0,1.7742731,-648.87476,-350.73904)" />
    <linearGradient
       inkscape:collect="always"
       xlink:href="#linearGradient3801"
       id="linearGradient3994"
       gradientUnits="userSpaceOnUse"
       x1="415.71875"
       y1="1054.5067"
       x2="417.12946"
       y2="634.50671"
       gradientTransform="matrix(1.1859984,0,0,1.1859984,178.82346,-80.594835)" />
    <linearGradient
       inkscape:collect="always"
       xlink:href="#linearGradient3801-1"
       id="linearGradient3807-7"
       x1="364.28571"
       y1="876.64789"
       x2="365.71429"
       y2="362.36218"
       gradientUnits="userSpaceOnUse"
       gradientTransform="translate(84.285713,91.428571)" />
    <linearGradient
       id="linearGradient3801-1">
      <stop
         style="stop-color:#96dcee;stop-opacity:1;"
         offset="0"
         id="stop3803-1" />
      <stop
         style="stop-color:#e5f8f9;stop-opacity:1;"
         offset="1"
         id="stop3805-9" />
    </linearGradient>
    <linearGradient
       inkscape:collect="always"
       xlink:href="#linearGradient3801-1"
       id="linearGradient4145"
       gradientUnits="userSpaceOnUse"
       gradientTransform="matrix(1.1859984,0,0,1.1859984,184.06779,11.236024)"
       x1="364.28571"
       y1="876.64789"
       x2="365.71429"
       y2="362.36218" />
    <linearGradient
       inkscape:collect="always"
       xlink:href="#linearGradient3801"
       id="linearGradient4150"
       gradientUnits="userSpaceOnUse"
       gradientTransform="matrix(1.1859984,0,0,1.1859984,-7.5477102,54.947833)"
       x1="307.08286"
       y1="920.0271"
       x2="311.37302"
       y2="388.59851" />
    <linearGradient
       inkscape:collect="always"
       xlink:href="#linearGradient4255"
       id="linearGradient4309"
       x1="1135.7142"
       y1="66.85714"
       x2="1138.5714"
       y2="199.71429"
       gradientUnits="userSpaceOnUse" />
    <linearGradient
       inkscape:collect="always"
       xlink:href="#linearGradient4271"
       id="linearGradient4317"
       x1="576.61249"
       y1="672.56989"
       x2="580.52594"
       y2="-50.287239"
       gradientUnits="userSpaceOnUse" />
    <linearGradient
       inkscape:collect="always"
       xlink:href="#linearGradient4271"
       id="linearGradient4335"
       x1="610.27679"
       y1="1041.1414"
       x2="609.71875"
       y2="305.42706"
       gradientUnits="userSpaceOnUse" />
    <linearGradient
       inkscape:collect="always"
       xlink:href="#linearGradient4255-4"
       id="linearGradient4309-3"
       x1="1135.7142"
       y1="66.85714"
       x2="1138.5714"
       y2="199.71429"
       gradientUnits="userSpaceOnUse" />
    <linearGradient
       id="linearGradient4255-4">
      <stop
         style="stop-color:#edfbfd;stop-opacity:1;"
         offset="0"
         id="stop4257-9" />
      <stop
         style="stop-color:#fbfffe;stop-opacity:0.9910714;"
         offset="1"
         id="stop4259-5" />
    </linearGradient>
    <linearGradient
       y2="65.428581"
       x2="1132.2767"
       y1="190.65178"
       x1="1135.7142"
       gradientUnits="userSpaceOnUse"
       id="linearGradient4390"
       xlink:href="#linearGradient4255-4"
       inkscape:collect="always" />
    <linearGradient
       inkscape:collect="always"
       xlink:href="#linearGradient4255-4"
       id="linearGradient4420"
       x1="151.35715"
       y1="279.71429"
       x2="151.5"
       y2="225.42857"
       gradientUnits="userSpaceOnUse" />
    <linearGradient
       inkscape:collect="always"
       xlink:href="#linearGradient4255-4"
       id="linearGradient4521"
       gradientUnits="userSpaceOnUse"
       x1="1135.7142"
       y1="190.65178"
       x2="1132.2767"
       y2="65.428581"
       gradientTransform="matrix(0.68085108,0,0,0.68085108,-656.46656,112.66717)" />
    <linearGradient
       inkscape:collect="always"
       xlink:href="#linearGradient4255-4"
       id="linearGradient4526"
       gradientUnits="userSpaceOnUse"
       gradientTransform="matrix(0.68085108,0,0,0.68085108,-656.46656,112.66717)"
       x1="1140.4352"
       y1="227.37053"
       x2="1140.145"
       y2="43.397331" />
    <linearGradient
       inkscape:collect="always"
       xlink:href="#linearGradient4255-4"
       id="linearGradient4535"
       gradientUnits="userSpaceOnUse"
       gradientTransform="matrix(0.68085108,0,0,0.68085108,-656.46656,112.66717)"
       x1="1140.4352"
       y1="227.37053"
       x2="1140.145"
       y2="43.397331" />
  </defs>
  <sodipodi:namedview
     id="base"
     pagecolor="#ffffff"
     bordercolor="#666666"
     borderopacity="1.0"
     inkscape:pageopacity="0.0"
     inkscape:pageshadow="2"
     inkscape:zoom="0.49497475"
     inkscape:cx="649.50289"
     inkscape:cy="945.75411"
     inkscape:document-units="px"
     inkscape:current-layer="layer6"
     showgrid="false"
     inkscape:window-width="1680"
     inkscape:window-height="988"
     inkscape:window-x="-8"
     inkscape:window-y="-8"
     inkscape:window-maximized="1" />
  <metadata
     id="metadata7">
    <rdf:RDF>
      <cc:Work
         rdf:about="">
        <dc:format>image/svg+xml</dc:format>
        <dc:type
           rdf:resource="http://purl.org/dc/dcmitype/StillImage" />
        <dc:title></dc:title>
      </cc:Work>
    </rdf:RDF>
  </metadata>
  <g
     inkscape:label="sky"
     inkscape:groupmode="layer"
     id="layer1"
     transform="translate(0,-28.362183)">
    <rect
       style="color:#000000;fill:url(#linearGradient3009);fill-opacity:1.0;fill-rule:nonzero;stroke:#000000;stroke-width:0;stroke-linecap:butt;stroke-linejoin:miter;stroke-miterlimit:4;stroke-opacity:1;stroke-dasharray:none;stroke-dashoffset:0;marker:none;visibility:visible;display:inline;overflow:visible;enable-background:accumulate"
       id="rect3001"
       width="1280.4619"
       height="1051.8904"
       x="-1.6595154"
       y="0.70267475" />
    <path
       sodipodi:type="arc"
       style="opacity:0.68141593;color:#000000;fill:url(#linearGradient4309);fill-opacity:1;fill-rule:nonzero;stroke:none;stroke-width:0;marker:none;visibility:visible;display:inline;overflow:visible;enable-background:accumulate"
       id="path4301"
       sodipodi:cx="1135.7142"
       sodipodi:cy="132.57143"
       sodipodi:rx="67.14286"
       sodipodi:ry="67.14286"
       d="m 1202.8571,132.57143 a 67.14286,67.14286 0 1 1 -134.2857,0 67.14286,67.14286 0 1 1 134.2857,0 z"
       transform="matrix(0.68085108,0,0,0.68085108,362.46197,70.672211)"
       inkscape:export-filename="C:\xampp\htdocs\nurd\images\moon.png"
       inkscape:export-xdpi="90"
       inkscape:export-ydpi="90" />
  </g>
  <g
     inkscape:groupmode="layer"
     id="layer3"
     inkscape:label="cloud"
     transform="translate(0,-28.362183)">
    <path
       style="color:#000000;fill:url(#linearGradient4145);fill-opacity:1;fill-rule:nonzero;stroke:#000000;stroke-width:0;stroke-linecap:butt;stroke-linejoin:miter;stroke-miterlimit:4;stroke-opacity:1;stroke-dasharray:none;stroke-dashoffset:0;marker:none;visibility:visible;display:inline;overflow:visible;enable-background:accumulate"
       d="M 622.875 452.875 C 561.38154 452.875 507.4787 485.3038 477.3125 534 C 467.96944 529.78461 457.60317 527.40625 446.6875 527.40625 C 410.99384 527.40625 381.15137 552.49747 373.84375 586 C 361.82952 581.00211 348.69891 578.25 334.875 578.25 C 331.97988 578.25 329.11505 578.38774 326.28125 578.625 C 317.82105 536.84226 280.87188 505.375 236.59375 505.375 C 190.09848 505.375 151.73731 540.06205 145.90625 584.96875 C 134.40884 575.44219 119.66045 569.71875 103.5625 569.71875 C 93.976812 569.71875 84.886935 571.75217 76.65625 575.40625 C 59.699281 550.4116 31.041966 534 -1.4375 534 C -53.510062 534 -95.71875 576.20869 -95.71875 628.28125 C -95.71875 644.29769 -91.733204 659.38426 -84.6875 672.59375 C -113.62411 690.79529 -132.84375 723.00945 -132.84375 759.71875 C -132.84375 780.73874 -126.54116 800.27608 -115.71875 816.5625 L -115.71875 1072.5625 L 1370 1072.5625 L 1370 774 L 1335.9375 774 C 1339.468 766.15139 1341.4375 757.44604 1341.4375 748.28125 C 1341.4375 741.73718 1340.4181 735.43244 1338.5625 729.5 C 1352.5496 717.449 1361.4375 699.62973 1361.4375 679.71875 C 1361.4375 672.08141 1360.1142 664.7561 1357.7188 657.9375 C 1385.5256 654.81111 1407.1562 631.2047 1407.1562 602.5625 C 1407.1562 571.79235 1382.2077 546.84375 1351.4375 546.84375 C 1320.6673 546.84375 1295.7188 571.79235 1295.7188 602.5625 C 1295.7188 606.48795 1296.1341 610.33513 1296.9062 614.03125 C 1296.509 614.02417 1296.1177 614 1295.7188 614 C 1283.0659 614 1271.2455 617.58492 1261.2188 623.78125 C 1252.0952 601.2918 1230.0448 585.4375 1204.2812 585.4375 C 1184.001 585.4375 1166.0305 595.25336 1154.8438 610.40625 L 1149.3438 610.40625 C 1136.7293 564.49696 1094.666 530.8125 1044.75 530.8125 C 1010.2131 530.8125 979.4514 546.93785 959.59375 572.09375 C 953.49215 569.5011 946.7663 568.0625 939.71875 568.0625 C 917.92971 568.0625 899.38468 581.76708 892.15625 601.03125 C 879.23954 591.99316 863.49246 586.6875 846.53125 586.6875 C 826.00162 586.6875 807.30858 594.46056 793.1875 607.21875 C 784.76619 520.57517 711.72927 452.875 622.875 452.875 z "
       transform="translate(0,28.362183)"
       id="path3780"
       inkscape:export-filename="C:\xampp\htdocs\nurd\images\cloud-1.png"
       inkscape:export-xdpi="90"
       inkscape:export-ydpi="90" />
    <path
       style="color:#000000;fill:url(#linearGradient4150);fill-opacity:1;fill-rule:nonzero;stroke:#000000;stroke-width:0;stroke-linecap:butt;stroke-linejoin:miter;stroke-miterlimit:4;stroke-opacity:1;stroke-dasharray:none;stroke-dashoffset:0;marker:none;visibility:visible;display:inline;overflow:visible;enable-background:accumulate"
       d="M 197 517.53125 C 153.5585 517.53125 117.0045 541.41915 106.1875 573.9375 C 100.42766 571.76055 94.161657 570.37454 87.5625 569.84375 C 76.045875 550.68434 51.852932 537.4375 23.84375 537.4375 C -11.357656 537.4375 -40.554165 558.32871 -46.09375 585.65625 C -98.799823 590.4969 -139.78125 626.81806 -139.78125 670.9375 C -139.78125 691.08333 -131.20482 709.63626 -116.90625 724.28125 C -124.63053 742.65515 -128.84375 762.31287 -128.84375 782.8125 C -128.84375 818.93827 -115.80501 852.58583 -93.375 880.84375 L -93.375 892.5625 L -134.28125 892.5625 L -134.28125 1085.4375 L 1417.1562 1085.4375 L 1417.1562 892.5625 L 1416.5 892.5625 C 1416.9279 889.04754 1417.1562 885.474 1417.1562 881.84375 C 1417.1562 842.8227 1391.6981 809.77095 1356.5 798.3125 C 1362.3401 788.98433 1365.7188 777.97331 1365.7188 766.15625 C 1365.7188 763.26101 1365.4855 760.41216 1365.0938 757.625 C 1366.4164 752.10498 1367.1562 746.36305 1367.1562 740.4375 C 1367.1562 739.06178 1367.1059 737.70085 1367.0312 736.34375 C 1367.1004 735.09574 1367.1562 733.82778 1367.1562 732.5625 C 1367.1562 695.48052 1337.082 665.4375 1300 665.4375 C 1294.0228 665.4375 1288.2345 666.22193 1282.7188 667.6875 C 1275.9313 668.69216 1269.4567 670.61801 1263.4062 673.34375 C 1233.2543 683.06416 1211.4375 711.33328 1211.4375 744.71875 C 1211.4375 754.72743 1213.3796 764.27019 1216.9375 773 C 1206.3285 775.90147 1197.0435 782.05728 1190.2812 790.34375 C 1190.2887 789.83964 1190.3125 789.3495 1190.3125 788.84375 C 1190.3125 730.36082 1142.9204 682.9375 1084.4375 682.9375 C 1060.2699 682.9375 1037.9778 691.0283 1020.1562 704.65625 C 1008.8936 697.35574 995.4837 693.09375 981.0625 693.09375 C 959.95435 693.09375 940.98324 702.18623 927.8125 716.65625 C 913.80634 708.44556 896.59016 703.625 878 703.625 C 873.50555 703.625 869.0877 703.89273 864.78125 704.4375 C 864.9602 702.51837 865.0625 700.58136 865.0625 698.625 C 865.0625 656.71539 823.23521 622.75 771.65625 622.75 C 731.59861 622.75 697.45287 643.2765 684.1875 672.0625 C 677.84581 670.28542 671.05346 669.28125 663.96875 669.28125 C 629.70828 669.28125 601.90625 691.84974 601.90625 719.6875 C 601.90625 725.83139 603.24188 731.71178 605.71875 737.15625 C 588.73645 756.21521 578.75 779.67155 578.75 805 C 578.75 807.8986 578.86728 810.74864 579.125 813.59375 C 572.07218 811.95142 564.6086 811.0625 556.90625 811.0625 C 539.15099 811.0625 522.77476 815.73977 509.46875 823.65625 C 501.95271 796.88223 483.79695 773.41554 458.84375 756.28125 C 460.55122 749.27901 461.46875 742.0658 461.46875 734.65625 C 461.46875 680.58406 413.81091 635.57768 350.75 625.84375 C 345.22896 609.39071 326.71779 597.25 304.71875 597.25 C 299.90891 597.25 295.22164 597.86194 290.84375 598.9375 C 290.97351 597.29456 291.0625 595.6383 291.0625 593.96875 C 291.0625 551.75323 248.95545 517.53125 197 517.53125 z M 1188.625 854.03125 C 1198.1113 866.99158 1213.4271 875.4375 1230.7188 875.4375 C 1234.5073 875.4375 1238.1909 875.01737 1241.75 874.25 C 1241.535 876.75685 1241.4375 879.28121 1241.4375 881.84375 C 1241.4375 885.474 1241.6662 889.04754 1242.0938 892.5625 L 1188.625 892.5625 L 1188.625 854.03125 z "
       id="path3831"
       transform="translate(0,28.362183)"
       inkscape:export-filename="C:\xampp\htdocs\nurd\images\cloud-2.png"
       inkscape:export-xdpi="90"
       inkscape:export-ydpi="90" />
    <path
       style="color:#000000;fill:url(#linearGradient3994);fill-opacity:1;fill-rule:nonzero;stroke:#000000;stroke-width:0;stroke-linecap:butt;stroke-linejoin:miter;stroke-miterlimit:4;stroke-opacity:1;stroke-dasharray:none;stroke-dashoffset:0;marker:none;visibility:visible;display:inline;overflow:visible;enable-background:accumulate"
       d="M -172.84375 585.4375 C -209.92573 585.4375 -240 634.0626 -240 694.0625 C -240 754.0624 -209.92573 802.71875 -172.84375 802.71875 C -166.36367 802.71875 -160.11581 801.20923 -154.1875 798.4375 C -152.85417 824.5552 -139.80359 847.59256 -120.21875 862.40625 C -143.03164 874.52404 -158.5625 898.52387 -158.5625 926.15625 C -158.5625 954.11593 -142.66262 978.33726 -119.40625 990.3125 C -120.7167 996.57565 -121.4375 1003.0663 -121.4375 1009.7188 C -121.4375 1061.7913 -79.228812 1104 -27.15625 1104 C -19.22465 1104 -11.516021 1103.0319 -4.15625 1101.1875 L -4.15625 1142.0938 L 1469.8438 1142.0938 L 1469.8438 917.78125 C 1473.1027 906.09712 1474.9375 893.15161 1474.9375 879.5 C 1474.9375 832.97719 1453.883 794.42942 1426.3438 787.4375 C 1417.2111 754.541 1387.0556 730.375 1351.25 730.375 C 1308.2066 730.375 1273.3125 765.26905 1273.3125 808.3125 C 1273.3125 818.37178 1275.2486 827.98479 1278.7188 836.8125 C 1265.0956 848.88477 1255.3768 865.20587 1251.5 883.6875 C 1240.7768 869.80706 1225.6256 859.5266 1208.1562 854.96875 C 1192.1708 788.35372 1132.2052 738.84375 1060.6875 738.84375 C 1037.6944 738.84375 1015.9008 743.96671 996.375 753.125 C 989.9369 748.42481 982.01913 745.625 973.4375 745.625 C 973.02641 745.625 972.62678 745.6749 972.21875 745.6875 C 967.67978 727.68571 958.05209 711.69953 945 699.3125 C 935.88381 686.29668 921.23596 677.4553 904.4375 676.28125 C 896.20005 673.99468 887.52738 672.78125 878.5625 672.78125 C 825.22606 672.78125 781.96875 716.00732 781.96875 769.34375 C 781.96875 786.62226 786.55143 802.84276 794.5 816.875 C 787.87702 823.67296 781.9186 831.08953 776.65625 839.03125 C 765.67704 824.49681 748.21271 815.09375 728.59375 815.09375 C 707.3225 815.09375 688.66276 826.14778 677.96875 842.8125 C 671.94405 841.3006 665.64983 840.53125 659.15625 840.53125 C 636.70774 840.53125 616.49506 850.12468 602.40625 865.4375 C 591.25775 836.02698 562.84929 815.09375 529.53125 815.09375 C 497.56722 815.09375 470.11744 834.3424 458.09375 861.875 C 440.31998 850.49817 419.20027 843.90625 396.53125 843.90625 C 396.04412 843.90625 395.57943 843.90025 395.09375 843.90625 C 397.66473 835.89913 399.09375 827.33003 399.09375 818.46875 C 399.09375 772.61813 361.91312 735.4375 316.0625 735.4375 C 280.34212 735.4375 249.89968 758.00782 238.1875 789.65625 C 228.58778 786.38776 218.33061 784.59375 207.625 784.59375 C 184.76654 784.59375 163.81739 792.69199 147.4375 806.15625 C 140.88169 786.72976 122.5134 772.71875 100.875 772.71875 C 88.498814 772.71875 77.204129 777.32053 68.5625 784.875 C 52.919724 776.1395 34.908063 771.15625 15.71875 771.15625 C 15.166966 771.15625 14.612333 771.1793 14.0625 771.1875 C 4.0720662 734.92652 -29.125903 708.28125 -68.5625 708.28125 C -75.054204 708.28125 -81.390008 709.00751 -87.46875 710.375 C -91.807905 703.81239 -98.204064 698.7232 -105.75 696.0625 C -105.74253 695.39501 -105.71875 694.73288 -105.71875 694.0625 C -105.71875 634.0626 -135.76177 585.4375 -172.84375 585.4375 z "
       id="path3912"
       transform="translate(0,28.362183)"
       inkscape:export-filename="C:\xampp\htdocs\nurd\images\cloud-3.png"
       inkscape:export-xdpi="90"
       inkscape:export-ydpi="90" />
  </g>
  <g
     inkscape:groupmode="layer"
     id="layer4"
     inkscape:label="game cloud">
    <path
       style="color:#000000;fill:url(#linearGradient4335);fill-opacity:1;fill-rule:nonzero;stroke:url(#linearGradient4317);stroke-width:8;stroke-linecap:butt;stroke-linejoin:miter;stroke-miterlimit:4;stroke-opacity:1;stroke-dasharray:none;stroke-dashoffset:0;marker:none;visibility:visible;display:inline;overflow:visible;enable-background:accumulate;opacity:0.73893805000000001"
       d="M 774.40625 11.15625 C 746.56339 11.86165 722.37832 27.19743 709.1875 49.75 C 690.4853 50.09711 674.71151 62.38842 669.21875 79.34375 C 666.25937 78.64571 663.17256 78.28125 660 78.28125 C 651.55264 78.28125 643.70676 80.90535 637.25 85.375 C 625.80454 61.74165 601.58326 45.4375 573.5625 45.4375 C 547.97329 45.4375 525.57063 59.01674 513.15625 79.375 C 507.81521 80.96505 503.18322 84.21009 499.84375 88.5 C 490.01751 78.65787 476.44396 72.5625 461.4375 72.5625 C 451.61994 72.5625 442.41484 75.1918 434.46875 79.75 C 433.87921 79.7327 433.28395 79.71875 432.6875 79.71875 C 418.58837 79.71875 406.36479 84.60891 400.125 91.78125 C 389.35983 82.48279 375.34127 76.84375 360 76.84375 C 326.07394 76.84375 298.5625 104.35519 298.5625 138.28125 C 298.5625 168.163 319.91852 193.05089 348.1875 198.5625 C 339.59088 207.32477 334.28125 219.31762 334.28125 232.5625 C 334.28125 245.00119 338.9666 256.34463 346.65625 264.9375 C 342.38556 274.46913 340 285.03547 340 296.15625 C 340 308.49258 342.93419 320.12115 348.125 330.4375 C 325.0225 347.32874 310 374.62652 310 405.4375 C 310 441.87188 330.9897 473.38738 361.53125 488.59375 C 360.54452 492.13756 360 495.86039 360 499.71875 C 360 513.13692 366.39023 525.05396 376.28125 532.625 C 377.08096 537.25813 378.71061 541.6068 381.03125 545.5 C 375.89523 552.48369 372.84375 561.10378 372.84375 570.4375 C 372.84375 573.21497 373.14345 575.90387 373.65625 578.53125 C 371.98032 578.38711 370.27578 578.28125 368.5625 578.28125 C 336.21439 578.28125 310 604.49564 310 636.84375 C 310 669.19186 336.21439 695.4375 368.5625 695.4375 C 369.76466 695.4375 370.97204 695.3839 372.15625 695.3125 C 370.7584 700.82946 370 706.61095 370 712.5625 C 370 751.22243 401.34007 782.5625 440 782.5625 C 460.6103 782.5625 479.12756 773.64382 491.9375 759.46875 C 498.07853 761.47167 504.62784 762.5625 511.4375 762.5625 C 535.83905 762.5625 556.95947 748.66192 567.375 728.34375 C 569.98931 729.2392 572.80089 729.71875 575.71875 729.71875 C 589.92036 729.71875 601.4375 718.20161 601.4375 704 C 601.4375 703.20764 601.3826 702.43033 601.3125 701.65625 C 603.34131 698.60271 605.00525 695.27898 606.21875 691.75 C 610.12022 692.28741 614.18026 692.5625 618.34375 692.5625 C 630.65087 692.5625 642.01753 690.0974 651.21875 685.90625 C 656.27199 687.83422 662.0352 689.0906 668.21875 689.53125 C 674.4973 702.32441 687.63126 711.15625 702.84375 711.15625 C 715.48327 711.15625 726.74635 705.08188 733.78125 695.6875 C 754.89327 712.51144 781.62479 722.5625 810.71875 722.5625 C 878.96536 722.5625 934.28125 667.24661 934.28125 599 C 934.28125 568.4977 923.22359 540.58536 904.90625 519.03125 C 909.97376 509.16356 912.84375 498.01208 912.84375 486.15625 C 912.84375 480.3558 912.13805 474.71722 910.84375 469.3125 C 915.58786 465.00063 918.5625 458.75964 918.5625 451.84375 C 918.5625 447.711 917.49337 443.8459 915.625 440.46875 C 927.8873 430.51569 935.71875 415.30525 935.71875 398.28125 C 935.71875 377.04459 923.51864 358.67003 905.75 349.75 C 908.50324 341.18081 910 332.04591 910 322.5625 C 910 303.56637 904.02415 285.98524 893.84375 271.5625 C 906.55248 263.7807 915.15868 249.9898 915.6875 234.125 C 933.36585 226.4177 945.71875 208.79842 945.71875 188.28125 C 945.71875 161.47737 924.61668 139.6047 898.125 138.34375 C 900.20447 135.26573 901.4375 131.5567 901.4375 127.5625 C 901.4375 122.64882 899.58799 118.1868 896.5625 114.78125 C 897.86534 111.2001 898.5625 107.31278 898.5625 103.28125 C 898.5625 84.740261 883.54099 69.71875 865 69.71875 C 860.55313 69.71875 856.32156 70.58599 852.4375 72.15625 C 844.73657 37.25903 813.64994 11.15625 776.4375 11.15625 C 775.76564 11.15625 775.07404 11.13935 774.40625 11.15625 z "
       id="path4156"
       inkscape:export-filename="C:\xampp\htdocs\nurd\images\board.png"
       inkscape:export-xdpi="90"
       inkscape:export-ydpi="90" />
  </g>
  <g
     inkscape:groupmode="layer"
     id="layer5"
     inkscape:label="title" />
  <g
     inkscape:groupmode="layer"
     id="layer6"
     inkscape:label="names">
    <path
       style="color:#000000;fill:url(#linearGradient4535);fill-opacity:1;fill-rule:nonzero;stroke:none;stroke-width:0;marker:none;visibility:visible;display:inline;overflow:visible;enable-background:accumulate"
       d="M 91.78125 134.71875 C 87.468241 134.71875 83.765187 137.18208 81.9375 140.78125 C 81.328706 140.56012 80.685197 140.4375 80 140.4375 C 77.52744 140.4375 75.421004 141.98971 74.625 144.1875 C 73.122959 142.54363 70.96473 141.5 68.5625 141.5 C 65.418706 141.5 62.693287 143.28083 61.3125 145.875 C 60.748706 141.98847 57.449033 139 53.40625 139 C 48.968248 139 45.34375 142.59325 45.34375 147.03125 C 45.34375 150.6921 47.807908 153.78038 51.15625 154.75 C 50.642797 155.82257 50.34375 157.01274 50.34375 158.28125 C 50.34375 161.19089 51.874277 163.72818 54.15625 165.1875 C 50.212878 167.09342 47.5 171.10785 47.5 175.78125 C 47.5 179.00399 48.778834 181.93485 50.875 184.0625 C 48.888149 184.90287 47.5 186.89453 47.5 189.1875 C 47.5 192.23421 49.957309 194.70167 53 194.71875 C 52.225246 196.34534 51.78125 198.14083 51.78125 200.0625 C 51.78125 203.98682 53.608589 207.48956 56.4375 209.78125 L 56.4375 210.78125 C 55.538169 211.91 55 213.35085 55 214.90625 C 55 216.46165 55.538169 217.87125 56.4375 219 L 56.4375 219.625 C 52.738205 220.57489 50 223.94187 50 227.9375 C 50 230.61601 51.231859 232.9907 53.15625 234.5625 C 50.322574 235.23332 48.21875 237.74252 48.21875 240.78125 C 48.21875 244.33165 51.105848 247.21875 54.65625 247.21875 C 54.944883 247.21875 55.221438 247.19311 55.5 247.15625 C 54.496244 248.7151 53.9375 250.57063 53.9375 252.5625 C 53.9375 254.67313 54.571262 256.63634 55.6875 258.25 C 55.018894 258.0546 54.294247 257.9375 53.5625 257.9375 C 49.420364 257.9375 46.0625 261.29536 46.0625 265.4375 C 46.0625 269.57964 49.420364 272.9375 53.5625 272.9375 C 54.125171 272.9375 54.691474 272.86747 55.21875 272.75 C 56.354889 275.5703 59.0855 277.5625 62.3125 277.5625 C 66.553258 277.5625 70 274.14701 70 269.90625 C 70 269.27342 69.925603 268.65081 69.78125 268.0625 C 70.787583 268.65307 71.967605 269 73.21875 269 C 75.42755 269 77.385901 267.94646 78.625 266.3125 C 78.987526 270.81181 82.719846 274.34375 87.3125 274.34375 C 90.357803 274.34375 93.026547 272.79753 94.59375 270.4375 C 95.801073 271.74725 97.546992 272.5625 99.46875 272.5625 C 101.40323 272.5625 103.13542 271.73118 104.34375 270.40625 C 104.31466 270.70253 104.28125 271.00857 104.28125 271.3125 C 104.28125 276.34224 108.37651 280.4375 113.40625 280.4375 C 118.12163 280.4375 121.97112 276.84233 122.4375 272.25 C 123.07788 272.45684 123.75953 272.5625 124.46875 272.5625 C 126.41136 272.5625 128.13483 271.70965 129.34375 270.375 C 130.89568 273.18063 133.87928 275.0625 137.3125 275.0625 C 139.28435 275.0625 141.10293 274.44005 142.59375 273.375 C 143.15655 276.96027 146.25668 279.71875 150 279.71875 C 153.2814 279.71875 156.045 277.59139 157.0625 274.65625 C 157.81674 274.91887 158.62502 275.0625 159.46875 275.0625 C 163.51226 275.0625 166.78125 271.79351 166.78125 267.75 C 166.78125 267.49728 166.775 267.24612 166.75 267 C 167.62662 267.58266 168.681 267.9375 169.8125 267.9375 C 170.82516 267.9375 171.77714 267.63104 172.59375 267.15625 C 173.53595 269.74595 175.91731 271.61025 178.78125 271.8125 C 179.58453 275.50661 182.84645 278.28125 186.78125 278.28125 C 191.08677 278.28125 194.61968 274.96593 194.96875 270.75 C 195.40682 270.86401 195.86998 270.9375 196.34375 270.9375 C 199.34242 270.9375 201.78125 268.49867 201.78125 265.5 C 201.78125 263.73791 200.92574 262.17944 199.625 261.1875 C 199.63697 260.99032 199.65625 260.79391 199.65625 260.59375 C 199.65625 258.27717 198.84155 256.1794 197.5 254.5 L 197.5 254.375 C 199.82745 253.24777 201.4375 250.85332 201.4375 248.09375 C 201.4375 245.33686 199.8238 242.97232 197.5 241.84375 L 197.5 241 C 198.63136 239.30152 199.28125 237.25634 199.28125 235.0625 C 199.28125 232.86866 198.63136 230.85473 197.5 229.15625 L 197.5 227.03125 C 199.96486 226.39707 201.78125 224.1628 201.78125 221.5 C 201.78125 219.0975 200.28774 217.06358 198.1875 216.21875 C 199.75145 214.42919 200.71875 212.0946 200.71875 209.53125 C 200.71875 207.91205 200.32895 206.39037 199.65625 205.03125 C 200.53843 203.78106 201.0625 202.24018 201.0625 200.59375 C 201.0625 199.22845 200.71848 197.95467 200.09375 196.84375 C 200.70976 195.23671 201.0625 193.51128 201.0625 191.6875 C 201.0625 189.20065 200.41936 186.85693 199.3125 184.8125 C 199.61001 184.42764 199.83741 183.99999 200 183.53125 C 204.44486 182.83616 207.84375 178.98312 207.84375 174.34375 C 207.84375 170.43755 205.4471 167.12145 202.03125 165.75 C 201.69086 163.74769 200.57111 161.99841 199 160.84375 C 200.50544 159.16782 201.4375 156.96139 201.4375 154.53125 C 201.4375 149.30427 197.19573 145.0625 191.96875 145.0625 C 191.58714 145.0625 191.21355 145.11234 190.84375 145.15625 C 190.98731 144.61461 191.0625 144.05555 191.0625 143.46875 C 191.0625 139.81973 188.11777 136.84375 184.46875 136.84375 C 181.97002 136.84375 179.78434 138.22979 178.65625 140.28125 C 178.65175 140.28943 178.66072 140.3043 178.65625 140.3125 C 177.56876 140.76462 176.61904 141.53265 175.9375 142.53125 C 174.48148 141.02195 172.45291 140.0625 170.1875 140.0625 C 169.22207 140.0625 168.29502 140.25038 167.4375 140.5625 C 166.16343 137.943 163.45246 136.15625 160.34375 136.15625 C 156.36189 136.15625 153.07761 139.09667 152.5625 142.9375 C 150.77518 141.38263 148.46127 140.4375 145.90625 140.4375 C 142.39283 140.4375 139.26666 142.19873 137.4375 144.90625 C 136.3989 145.28186 135.4488 145.8278 134.625 146.53125 C 134.45861 141.9439 130.69049 138.28125 126.0625 138.28125 C 122.57238 138.28125 119.58702 140.3818 118.25 143.375 C 116.25262 140.92362 113.22112 139.34375 109.8125 139.34375 C 106.9065 139.34375 104.29688 140.52039 102.34375 142.375 C 100.90484 137.9308 96.704715 134.71875 91.78125 134.71875 z M 106 265.0625 L 106.8125 265.0625 C 106.54893 265.34031 106.28968 265.62821 106.0625 265.9375 C 106.06115 265.64408 106.03842 265.3457 106 265.0625 z M 146.375 265.0625 L 147.78125 265.0625 C 147.30292 265.21128 146.83821 265.38835 146.40625 265.625 C 146.3993 265.43823 146.39304 265.24623 146.375 265.0625 z M 152.21875 265.0625 L 152.65625 265.0625 C 152.63525 265.11559 152.61353 265.16506 152.59375 265.21875 C 152.46662 265.17142 152.34903 265.10302 152.21875 265.0625 z "
       id="path4301-6"
       inkscape:export-filename="C:\xampp\htdocs\nurd\images\cloud-border.png"
       inkscape:export-xdpi="90"
       inkscape:export-ydpi="90" />
  </g>
</svg>
