<?xml version="1.0" encoding="UTF-8" standalone="no"?>
<!-- Created with Inkscape (http://www.inkscape.org/) -->

<svg
   xmlns:dc="http://purl.org/dc/elements/1.1/"
   xmlns:cc="http://creativecommons.org/ns#"
   xmlns:rdf="http://www.w3.org/1999/02/22-rdf-syntax-ns#"
   xmlns:svg="http://www.w3.org/2000/svg"
   xmlns="http://www.w3.org/2000/svg"
   xmlns:xlink="http://www.w3.org/1999/xlink"
   xmlns:sodipodi="http://sodipodi.sourceforge.net/DTD/sodipodi-0.dtd"
   xmlns:inkscape="http://www.inkscape.org/namespaces/inkscape"
   width="1280"
   height="1024"
   id="svg2"
   version="1.1"
   inkscape:version="0.48.0 r9654"
   sodipodi:docname="clouds.svg">
  <defs
     id="defs4">
    <linearGradient
       id="linearGradient4597">
      <stop
         id="stop4599"
         offset="0"
         style="stop-color:#ebfcff;stop-opacity:1;" />
      <stop
         style="stop-color:#f0fcfd;stop-opacity:0.99607843;"
         offset="0.15448102"
         id="stop4601" />
      <stop
         style="stop-color:#f4fdfd;stop-opacity:0.99607843;"
         offset="0.86722237"
         id="stop4603" />
      <stop
         id="stop4605"
         offset="1"
         style="stop-color:#fbfffe;stop-opacity:0.9910714;" />
    </linearGradient>
    <linearGradient
       id="linearGradient4271">
      <stop
         style="stop-color:#90eaff;stop-opacity:1;"
         offset="0"
         id="stop4273" />
      <stop
         id="stop4279"
         offset="0.39990917"
         style="stop-color:#a9e9f5;stop-opacity:1;" />
      <stop
         style="stop-color:#ffffff;stop-opacity:0.8214286;"
         offset="1"
         id="stop4275" />
    </linearGradient>
    <linearGradient
       id="linearGradient4255">
      <stop
         style="stop-color:#edfbfd;stop-opacity:1;"
         offset="0"
         id="stop4257" />
      <stop
         style="stop-color:#fbfffe;stop-opacity:0.9910714;"
         offset="1"
         id="stop4259" />
    </linearGradient>
    <linearGradient
       id="linearGradient3801">
      <stop
         style="stop-color:#96dcee;stop-opacity:1;"
         offset="0"
         id="stop3803" />
      <stop
         style="stop-color:#e5f8f9;stop-opacity:1;"
         offset="1"
         id="stop3805" />
    </linearGradient>
    <linearGradient
       id="linearGradient3003">
      <stop
         style="stop-color:#c4fbfe;stop-opacity:1;"
         offset="0"
         id="stop3005" />
      <stop
         style="stop-color:#faffff;stop-opacity:0;"
         offset="1"
         id="stop3007" />
    </linearGradient>
    <linearGradient
       inkscape:collect="always"
       xlink:href="#linearGradient3003"
       id="linearGradient3009"
       x1="335.71426"
       y1="198.07646"
       x2="334.28571"
       y2="783.79077"
       gradientUnits="userSpaceOnUse"
       gradientTransform="matrix(3.2593577,0,0,1.7742731,-648.87476,-350.73904)" />
    <linearGradient
       inkscape:collect="always"
       xlink:href="#linearGradient3801-1"
       id="linearGradient3807-7"
       x1="364.28571"
       y1="876.64789"
       x2="365.71429"
       y2="362.36218"
       gradientUnits="userSpaceOnUse"
       gradientTransform="translate(84.285713,91.428571)" />
    <linearGradient
       id="linearGradient3801-1">
      <stop
         style="stop-color:#96dcee;stop-opacity:1;"
         offset="0"
         id="stop3803-1" />
      <stop
         style="stop-color:#e5f8f9;stop-opacity:1;"
         offset="1"
         id="stop3805-9" />
    </linearGradient>
    <linearGradient
       inkscape:collect="always"
       xlink:href="#linearGradient3801"
       id="linearGradient4150"
       gradientUnits="userSpaceOnUse"
       gradientTransform="matrix(1.1859984,0,0,1.1859984,-7.5477102,54.947833)"
       x1="307.08286"
       y1="920.0271"
       x2="311.37302"
       y2="388.59851" />
    <linearGradient
       inkscape:collect="always"
       xlink:href="#linearGradient4255"
       id="linearGradient4309"
       x1="1135.7142"
       y1="66.85714"
       x2="1138.5714"
       y2="199.71429"
       gradientUnits="userSpaceOnUse" />
    <linearGradient
       inkscape:collect="always"
       xlink:href="#linearGradient4271"
       id="linearGradient4317"
       x1="576.61249"
       y1="672.56989"
       x2="580.52594"
       y2="-50.287239"
       gradientUnits="userSpaceOnUse" />
    <linearGradient
       inkscape:collect="always"
       xlink:href="#linearGradient4271"
       id="linearGradient4335"
       x1="610.27679"
       y1="1041.1414"
       x2="609.71875"
       y2="305.42706"
       gradientUnits="userSpaceOnUse" />
    <linearGradient
       inkscape:collect="always"
       xlink:href="#linearGradient4255-4"
       id="linearGradient4309-3"
       x1="1135.7142"
       y1="66.85714"
       x2="1138.5714"
       y2="199.71429"
       gradientUnits="userSpaceOnUse" />
    <linearGradient
       id="linearGradient4255-4">
      <stop
         style="stop-color:#d5f6fb;stop-opacity:1;"
         offset="0"
         id="stop4257-9" />
      <stop
         id="stop4595"
         offset="0.25"
         style="stop-color:#f4fdfd;stop-opacity:1;" />
      <stop
         id="stop4593"
         offset="0.5"
         style="stop-color:#f4fdfd;stop-opacity:1;" />
      <stop
         style="stop-color:#fbfffe;stop-opacity:0.9910714;"
         offset="1"
         id="stop4259-5" />
    </linearGradient>
    <linearGradient
       inkscape:collect="always"
       xlink:href="#linearGradient4597"
       id="linearGradient4591"
       x1="39.455357"
       y1="43.272324"
       x2="39.098221"
       y2="-16.549107"
       gradientUnits="userSpaceOnUse" />
    <linearGradient
       inkscape:collect="always"
       xlink:href="#linearGradient3801-1"
       id="linearGradient4636"
       gradientUnits="userSpaceOnUse"
       gradientTransform="matrix(1.1859984,0,0,1.1859984,184.06779,11.236024)"
       x1="364.28571"
       y1="876.64789"
       x2="365.71429"
       y2="362.36218" />
    <linearGradient
       inkscape:collect="always"
       xlink:href="#linearGradient3801"
       id="linearGradient4648"
       gradientUnits="userSpaceOnUse"
       gradientTransform="matrix(1.1859984,0,0,1.1859984,-7.5477102,54.947833)"
       x1="307.08286"
       y1="920.0271"
       x2="311.37302"
       y2="388.59851" />
    <linearGradient
       inkscape:collect="always"
       xlink:href="#linearGradient3801"
       id="linearGradient4653"
       gradientUnits="userSpaceOnUse"
       gradientTransform="matrix(1.1859984,0,0,1.1859984,-7.5477102,54.947833)"
       x1="307.08286"
       y1="920.0271"
       x2="311.37302"
       y2="388.59851" />
    <linearGradient
       inkscape:collect="always"
       xlink:href="#linearGradient3801"
       id="linearGradient4658"
       gradientUnits="userSpaceOnUse"
       gradientTransform="matrix(1.1859984,0,0,1.1859984,-7.5477102,54.947833)"
       x1="307.08286"
       y1="920.0271"
       x2="311.37302"
       y2="388.59851" />
    <linearGradient
       inkscape:collect="always"
       xlink:href="#linearGradient3801"
       id="linearGradient4663"
       gradientUnits="userSpaceOnUse"
       gradientTransform="matrix(1.1859984,0,0,1.1859984,1575.3614,83.310016)"
       x1="307.08286"
       y1="920.0271"
       x2="311.37302"
       y2="388.59851" />
    <linearGradient
       inkscape:collect="always"
       xlink:href="#linearGradient3801"
       id="linearGradient4667"
       gradientUnits="userSpaceOnUse"
       gradientTransform="matrix(1.1859984,0,0,1.1859984,-7.5477102,54.947833)"
       x1="307.08286"
       y1="920.0271"
       x2="311.37302"
       y2="388.59851" />
    <linearGradient
       inkscape:collect="always"
       xlink:href="#linearGradient3801"
       id="linearGradient4676"
       gradientUnits="userSpaceOnUse"
       gradientTransform="matrix(1.1859984,0,0,1.1859984,-7.5477102,54.947833)"
       x1="307.08286"
       y1="920.0271"
       x2="311.37302"
       y2="388.59851" />
    <linearGradient
       inkscape:collect="always"
       xlink:href="#linearGradient3801"
       id="linearGradient4679"
       gradientUnits="userSpaceOnUse"
       gradientTransform="matrix(1.1859984,0,0,1.1859984,-7.5477102,54.947833)"
       x1="307.08286"
       y1="920.0271"
       x2="311.37302"
       y2="388.59851" />
    <linearGradient
       inkscape:collect="always"
       xlink:href="#linearGradient3801"
       id="linearGradient4688"
       gradientUnits="userSpaceOnUse"
       gradientTransform="matrix(1.1859984,0,0,1.1859984,-7.5477102,54.947833)"
       x1="307.08286"
       y1="920.0271"
       x2="311.37302"
       y2="388.59851" />
    <linearGradient
       inkscape:collect="always"
       xlink:href="#linearGradient3801"
       id="linearGradient4693"
       gradientUnits="userSpaceOnUse"
       gradientTransform="matrix(1.1859984,0,0,1.1859984,-7.5477102,54.947833)"
       x1="307.08286"
       y1="920.0271"
       x2="311.37302"
       y2="388.59851" />
    <linearGradient
       inkscape:collect="always"
       xlink:href="#linearGradient3801"
       id="linearGradient3056"
       gradientUnits="userSpaceOnUse"
       gradientTransform="matrix(1.1859984,0,0,1.1859984,178.82346,-80.594835)"
       x1="415.71875"
       y1="1054.5067"
       x2="417.12946"
       y2="634.50671" />
    <linearGradient
       inkscape:collect="always"
       xlink:href="#linearGradient3801"
       id="linearGradient3068"
       gradientUnits="userSpaceOnUse"
       gradientTransform="matrix(1.1859984,0,0,1.1859984,178.82346,-80.594835)"
       x1="415.71875"
       y1="1054.5067"
       x2="417.12946"
       y2="634.50671" />
    <linearGradient
       inkscape:collect="always"
       xlink:href="#linearGradient3801"
       id="linearGradient3085"
       gradientUnits="userSpaceOnUse"
       gradientTransform="matrix(1.1859984,0,0,1.1859984,178.82346,-80.594835)"
       x1="415.71875"
       y1="1054.5067"
       x2="417.12946"
       y2="634.50671" />
    <linearGradient
       inkscape:collect="always"
       xlink:href="#linearGradient3801"
       id="linearGradient3090"
       gradientUnits="userSpaceOnUse"
       gradientTransform="matrix(1.1859984,0,0,1.1859984,1988.8234,-52.232652)"
       x1="415.71875"
       y1="1054.5067"
       x2="417.12946"
       y2="634.50671" />
    <linearGradient
       inkscape:collect="always"
       xlink:href="#linearGradient3801"
       id="linearGradient3096"
       gradientUnits="userSpaceOnUse"
       gradientTransform="matrix(1.1859984,0,0,1.1859984,178.82346,-80.594835)"
       x1="415.71875"
       y1="1054.5067"
       x2="417.12946"
       y2="634.50671" />
    <linearGradient
       inkscape:collect="always"
       xlink:href="#linearGradient3801"
       id="linearGradient3101"
       gradientUnits="userSpaceOnUse"
       gradientTransform="matrix(1.1859984,0,0,1.1859984,1990.252,-52.232652)"
       x1="415.71875"
       y1="1054.5067"
       x2="417.12946"
       y2="634.50671" />
    <linearGradient
       inkscape:collect="always"
       xlink:href="#linearGradient3801"
       id="linearGradient3105"
       gradientUnits="userSpaceOnUse"
       gradientTransform="matrix(1.1859984,0,0,1.1859984,178.82346,-80.594835)"
       x1="415.71875"
       y1="1054.5067"
       x2="417.12946"
       y2="634.50671" />
    <linearGradient
       inkscape:collect="always"
       xlink:href="#linearGradient3801"
       id="linearGradient3110"
       gradientUnits="userSpaceOnUse"
       gradientTransform="matrix(1.1859984,0,0,1.1859984,178.82346,-80.594835)"
       x1="415.71875"
       y1="1054.5067"
       x2="417.12946"
       y2="634.50671" />
    <linearGradient
       inkscape:collect="always"
       xlink:href="#linearGradient3801"
       id="linearGradient3113"
       gradientUnits="userSpaceOnUse"
       gradientTransform="matrix(1.1859984,0,0,1.1859984,178.82346,-80.594835)"
       x1="415.71875"
       y1="1054.5067"
       x2="417.12946"
       y2="634.50671" />
    <linearGradient
       inkscape:collect="always"
       xlink:href="#linearGradient3801"
       id="linearGradient3118"
       gradientUnits="userSpaceOnUse"
       gradientTransform="matrix(1.1859984,0,0,1.1859984,178.82346,-80.594835)"
       x1="415.71875"
       y1="1054.5067"
       x2="417.12946"
       y2="634.50671" />
  </defs>
  <sodipodi:namedview
     id="base"
     pagecolor="#ffffff"
     bordercolor="#666666"
     borderopacity="1.0"
     inkscape:pageopacity="0.0"
     inkscape:pageshadow="2"
     inkscape:zoom="0.7"
     inkscape:cx="399.0274"
     inkscape:cy="394.27226"
     inkscape:document-units="px"
     inkscape:current-layer="layer3"
     showgrid="false"
     inkscape:window-width="1680"
     inkscape:window-height="988"
     inkscape:window-x="-8"
     inkscape:window-y="-8"
     inkscape:window-maximized="1" />
  <metadata
     id="metadata7">
    <rdf:RDF>
      <cc:Work
         rdf:about="">
        <dc:format>image/svg+xml</dc:format>
        <dc:type
           rdf:resource="http://purl.org/dc/dcmitype/StillImage" />
        <dc:title></dc:title>
      </cc:Work>
    </rdf:RDF>
  </metadata>
  <g
     inkscape:label="sky"
     inkscape:groupmode="layer"
     id="layer1"
     transform="translate(0,-28.362183)">
    <rect
       style="color:#000000;fill:url(#linearGradient3009);fill-opacity:1.0;fill-rule:nonzero;stroke:#000000;stroke-width:0;stroke-linecap:butt;stroke-linejoin:miter;stroke-miterlimit:4;stroke-opacity:1;stroke-dasharray:none;stroke-dashoffset:0;marker:none;visibility:visible;display:inline;overflow:visible;enable-background:accumulate"
       id="rect3001"
       width="1280.4619"
       height="1051.8904"
       x="-1.6595154"
       y="0.70267475" />
    <path
       sodipodi:type="arc"
       style="opacity:0.68141593;color:#000000;fill:url(#linearGradient4309);fill-opacity:1;fill-rule:nonzero;stroke:none;stroke-width:0;marker:none;visibility:visible;display:inline;overflow:visible;enable-background:accumulate"
       id="path4301"
       sodipodi:cx="1135.7142"
       sodipodi:cy="132.57143"
       sodipodi:rx="67.14286"
       sodipodi:ry="67.14286"
       d="m 1202.8571,132.57143 c 0,37.08197 -30.0609,67.14286 -67.1429,67.14286 -37.0819,0 -67.1428,-30.06089 -67.1428,-67.14286 0,-37.081981 30.0609,-67.142864 67.1428,-67.142864 37.082,0 67.1429,30.060883 67.1429,67.142864 z"
       transform="matrix(0.68085108,0,0,0.68085108,362.46197,70.672211)"
       inkscape:export-filename="C:\xampp\htdocs\nurd\images\moon.png"
       inkscape:export-xdpi="90"
       inkscape:export-ydpi="90" />
  </g>
  <g
     inkscape:groupmode="layer"
     id="layer3"
     inkscape:label="cloud"
     transform="translate(0,-28.362183)">
    <path
       style="color:#000000;fill:url(#linearGradient4636);fill-opacity:1;fill-rule:nonzero;stroke:#000000;stroke-width:0;stroke-linecap:butt;stroke-linejoin:miter;stroke-miterlimit:4;stroke-opacity:1;stroke-dasharray:none;stroke-dashoffset:0;marker:none;visibility:visible;display:inline;overflow:visible;enable-background:accumulate"
       d="M 622.875 452.875 C 561.38154 452.875 507.4787 485.3038 477.3125 534 C 467.96944 529.78461 457.60317 527.40625 446.6875 527.40625 C 410.99384 527.40625 381.15137 552.49747 373.84375 586 C 361.82952 581.00211 348.69891 578.25 334.875 578.25 C 331.97988 578.25 329.11505 578.38774 326.28125 578.625 C 317.82105 536.84226 280.87188 505.375 236.59375 505.375 C 190.09848 505.375 151.73731 540.06205 145.90625 584.96875 C 134.40884 575.44219 119.66045 569.71875 103.5625 569.71875 C 93.976812 569.71875 84.886935 571.75217 76.65625 575.40625 C 59.699281 550.4116 31.041966 534 -1.4375 534 C -37.619106 534 -69.036783 554.37572 -84.84375 584.28125 L -84.84375 672.28125 C -84.789355 672.38415 -84.742265 672.49107 -84.6875 672.59375 C -84.738844 672.62605 -84.792467 672.65512 -84.84375 672.6875 L -84.84375 1072.5625 L 1192.8438 1072.5625 L 1370 1072.5625 L 1404.2812 1072.5625 L 1404.2812 1069.7188 L 1403.5312 1069.7188 L 1403.5312 669.84375 C 1403.5826 669.81145 1403.6365 669.7823 1403.6875 669.75 C 1403.6328 669.64732 1403.5854 669.5404 1403.5312 669.4375 L 1403.5312 581.4375 C 1403.7749 580.97647 1404.0303 580.51896 1404.2812 580.0625 L 1404.2812 579.71875 L 1402.25 579.71875 C 1393.5245 560.34319 1374.0642 546.84375 1351.4375 546.84375 C 1320.6673 546.84375 1295.7188 571.79235 1295.7188 602.5625 C 1295.7188 606.48795 1296.1345 610.33513 1296.9062 614.03125 C 1296.5095 614.02417 1296.1172 614 1295.7188 614 C 1283.0657 614 1271.245 617.58492 1261.2188 623.78125 C 1252.0947 601.2918 1230.0448 585.4375 1204.2812 585.4375 C 1184.0015 585.4375 1166.03 595.25336 1154.8438 610.40625 L 1149.3438 610.40625 C 1136.7288 564.49696 1094.666 530.8125 1044.75 530.8125 C 1010.2131 530.8125 979.4514 546.93785 959.59375 572.09375 C 953.49215 569.5011 946.7663 568.0625 939.71875 568.0625 C 917.92971 568.0625 899.38468 581.76708 892.15625 601.03125 C 879.23954 591.99316 863.49246 586.6875 846.53125 586.6875 C 826.00162 586.6875 807.30858 594.46056 793.1875 607.21875 C 784.76619 520.57517 711.72927 452.875 622.875 452.875 z "
       transform="translate(0,28.362183)"
       id="path3780"
       inkscape:export-filename="C:\xampp\htdocs\nurd\images\cloud-1.png"
       inkscape:export-xdpi="90"
       inkscape:export-ydpi="90" />
    <path
       style="color:#000000;fill:url(#linearGradient4693);fill-opacity:1;fill-rule:nonzero;stroke:#000000;stroke-width:0;stroke-linecap:butt;stroke-linejoin:miter;stroke-miterlimit:4;stroke-opacity:1;stroke-dasharray:none;stroke-dashoffset:0;marker:none;visibility:visible;display:inline;overflow:visible;enable-background:accumulate"
       d="M 197 517.53125 C 153.5585 517.53125 117.0045 541.41915 106.1875 573.9375 C 100.42766 571.76055 94.161657 570.37454 87.5625 569.84375 C 76.045875 550.68434 51.852932 537.4375 23.84375 537.4375 C -11.357656 537.4375 -40.554165 558.32871 -46.09375 585.65625 C -98.799823 590.4969 -139.78125 626.81806 -139.78125 670.9375 C -139.78125 671.86087 -139.75451 672.77104 -139.71875 673.6875 C -139.71714 673.72895 -139.72044 673.77107 -139.71875 673.8125 C -139.69786 674.32467 -139.65693 674.83385 -139.625 675.34375 C -139.56064 676.3706 -139.48371 677.38921 -139.375 678.40625 C -139.28859 679.2146 -139.17646 680.01069 -139.0625 680.8125 C -138.86984 682.17476 -138.64535 683.53271 -138.375 684.875 C -138.23541 685.56806 -138.06616 686.25008 -137.90625 686.9375 C -137.74046 687.64696 -137.59345 688.3593 -137.40625 689.0625 C -137.38093 689.158 -137.33821 689.24837 -137.3125 689.34375 C -137.01631 690.43821 -136.72212 691.54655 -136.375 692.625 C -136.34788 692.70952 -136.30867 692.79058 -136.28125 692.875 C -135.9754 693.81347 -135.65612 694.7306 -135.3125 695.65625 C -135.00934 696.47599 -134.67598 697.2845 -134.34375 698.09375 C -133.29297 700.65331 -132.11223 703.14763 -130.78125 705.59375 C -130.33529 706.41334 -129.88246 707.22537 -129.40625 708.03125 C -128.93325 708.83171 -128.43975 709.6198 -127.9375 710.40625 C -127.47037 711.1377 -126.99194 711.87482 -126.5 712.59375 C -126.46248 712.64858 -126.41266 712.69525 -126.375 712.75 C -149.08297 719.88757 -166.5169 738.89476 -171.4375 762.5 L -171.4375 1088.2812 L 217.15625 1088.2812 L 217.15625 1085.4375 L 1411.4688 1085.4375 L 1412.1875 1085.4375 L 1412.1875 852.6875 C 1411.9517 852.01782 1411.7203 851.34965 1411.4688 850.6875 L 1411.4688 762.5 C 1411.6749 761.50986 1411.9066 760.53592 1412.1562 759.5625 C 1403.2692 749.52122 1390.2778 743.1875 1375.8125 743.1875 C 1372.8185 743.1875 1369.9065 743.44926 1367.0625 743.96875 C 1367.1204 742.79855 1367.1562 741.6227 1367.1562 740.4375 C 1367.1562 739.06178 1367.1061 737.70085 1367.0312 736.34375 C 1367.1006 735.09574 1367.1562 733.82778 1367.1562 732.5625 C 1367.1562 695.48052 1337.082 665.4375 1300 665.4375 C 1294.0228 665.4375 1288.2343 666.22193 1282.7188 667.6875 C 1275.9311 668.69216 1269.4569 670.61801 1263.4062 673.34375 C 1260.5796 674.25504 1257.8255 675.33623 1255.1562 676.5625 C 1254.2667 676.97126 1253.4019 677.40163 1252.5312 677.84375 C 1249.0492 679.61221 1245.7052 681.63684 1242.5625 683.90625 C 1241.7768 684.4736 1241.0124 685.05964 1240.25 685.65625 C 1222.7147 699.37829 1211.4375 720.72294 1211.4375 744.71875 C 1211.4375 754.72743 1213.3796 764.27019 1216.9375 773 C 1206.3285 775.90147 1197.0437 782.05728 1190.2812 790.34375 C 1190.2889 789.83964 1190.3125 789.3495 1190.3125 788.84375 C 1190.3125 730.36082 1142.9204 682.9375 1084.4375 682.9375 C 1060.2699 682.9375 1037.9778 691.0283 1020.1562 704.65625 C 1008.8936 697.35574 995.4837 693.09375 981.0625 693.09375 C 959.95435 693.09375 940.98324 702.18623 927.8125 716.65625 C 913.80634 708.44556 896.59016 703.625 878 703.625 C 873.50555 703.625 869.0877 703.89273 864.78125 704.4375 C 864.9602 702.51837 865.0625 700.58136 865.0625 698.625 C 865.0625 656.71539 823.23521 622.75 771.65625 622.75 C 731.59861 622.75 697.45287 643.2765 684.1875 672.0625 C 677.84581 670.28542 671.05346 669.28125 663.96875 669.28125 C 629.70828 669.28125 601.90625 691.84974 601.90625 719.6875 C 601.90625 725.83139 603.24188 731.71178 605.71875 737.15625 C 603.59596 739.53862 601.58583 741.98514 599.6875 744.5 C 598.73834 745.75743 597.82836 747.0238 596.9375 748.3125 C 585.35635 765.0656 578.75 784.42063 578.75 805 C 578.75 807.8986 578.86728 810.74864 579.125 813.59375 C 572.07218 811.95142 564.6086 811.0625 556.90625 811.0625 C 539.15099 811.0625 522.77476 815.73977 509.46875 823.65625 C 501.95271 796.88223 483.79695 773.41554 458.84375 756.28125 C 460.55122 749.27901 461.46875 742.0658 461.46875 734.65625 C 461.46875 680.58406 413.81091 635.57768 350.75 625.84375 C 345.22896 609.39071 326.71779 597.25 304.71875 597.25 C 299.90891 597.25 295.22164 597.86194 290.84375 598.9375 C 290.97351 597.29456 291.0625 595.6383 291.0625 593.96875 C 291.0625 551.75323 248.95545 517.53125 197 517.53125 z "
       transform="translate(0,28.362183)"
       id="path4642"
       inkscape:export-filename="C:\xampp\htdocs\nurd\images\cloud-2.png"
       inkscape:export-xdpi="90"
       inkscape:export-ydpi="90" />
    <path
       style="color:#000000;fill:url(#linearGradient3118);fill-opacity:1;fill-rule:nonzero;stroke:#000000;stroke-width:0;stroke-linecap:butt;stroke-linejoin:miter;stroke-miterlimit:4;stroke-opacity:1;stroke-dasharray:none;stroke-dashoffset:0;marker:none;visibility:visible;display:inline;overflow:visible;enable-background:accumulate"
       d="M -170.71875 575.5 C -207.49038 575.5 -238.3717 600.68512 -247.0625 634.75 C -249.36875 640.54775 -250.96931 646.71596 -251.8125 653.125 C -273.03067 659.18927 -288.5625 678.6783 -288.5625 701.84375 C -288.5625 713.50817 -284.61898 724.24455 -278 732.8125 C -281.86926 734.89287 -285.51784 737.32327 -288.9375 740.03125 C -293.64384 737.98605 -298.82251 736.84375 -304.28125 736.84375 C -325.58366 736.84375 -342.84375 754.13509 -342.84375 775.4375 C -342.84375 775.91305 -342.82956 776.37237 -342.8125 776.84375 L -342.84375 776.84375 L -342.84375 1139.7188 L -254.28125 1139.7188 L -254.28125 1141.1562 L -158.5625 1141.1562 L -118.5625 1141.1562 L -4.15625 1141.1562 L -4.15625 1142.0938 L 1352.8438 1142.0938 L 1352.8438 1142.5625 L 1470 1142.5625 L 1470 1139.7188 L 1468.5938 1139.7188 L 1468.5938 776.84375 L 1468.625 776.84375 C 1468.608 776.37237 1468.5938 775.91305 1468.5938 775.4375 C 1468.5938 774.17011 1468.6619 772.9237 1468.7812 771.6875 C 1456.7551 775.29113 1446.7803 783.61341 1441.0312 794.53125 C 1436.426 791.16496 1431.4991 788.74649 1426.3438 787.4375 C 1417.2106 754.541 1387.0556 730.375 1351.25 730.375 C 1308.2066 730.375 1273.3125 765.26905 1273.3125 808.3125 C 1273.3125 818.37178 1275.2475 827.98479 1278.7188 836.8125 C 1265.0956 848.88477 1255.3768 865.20587 1251.5 883.6875 C 1240.7768 869.80706 1225.6267 859.5266 1208.1562 854.96875 C 1192.1716 788.35372 1132.2052 738.84375 1060.6875 738.84375 C 1037.6944 738.84375 1015.9008 743.96671 996.375 753.125 C 989.9369 748.42481 982.01913 745.625 973.4375 745.625 C 973.02641 745.625 972.62678 745.6749 972.21875 745.6875 C 967.67978 727.68571 958.05209 711.69953 945 699.3125 C 935.88381 686.29668 921.23596 677.4553 904.4375 676.28125 C 896.20005 673.99468 887.52738 672.78125 878.5625 672.78125 C 825.22606 672.78125 781.96875 716.00732 781.96875 769.34375 C 781.96875 786.62226 786.55143 802.84276 794.5 816.875 C 787.87702 823.67296 781.9186 831.08953 776.65625 839.03125 C 765.67704 824.49681 748.21271 815.09375 728.59375 815.09375 C 707.3225 815.09375 688.66276 826.14778 677.96875 842.8125 C 671.94405 841.3006 665.64983 840.53125 659.15625 840.53125 C 636.70774 840.53125 616.49506 850.12468 602.40625 865.4375 C 591.25775 836.02698 562.84929 815.09375 529.53125 815.09375 C 497.56722 815.09375 470.11744 834.3424 458.09375 861.875 C 440.31998 850.49817 419.20027 843.90625 396.53125 843.90625 C 396.04412 843.90625 395.57943 843.90025 395.09375 843.90625 C 397.66473 835.89913 399.09375 827.33003 399.09375 818.46875 C 399.09375 772.61813 361.91312 735.4375 316.0625 735.4375 C 280.34212 735.4375 249.89968 758.00782 238.1875 789.65625 C 228.58778 786.38776 218.33061 784.59375 207.625 784.59375 C 184.76654 784.59375 163.81739 792.69199 147.4375 806.15625 C 140.88169 786.72976 122.5134 772.71875 100.875 772.71875 C 88.498814 772.71875 77.204129 777.32053 68.5625 784.875 C 52.919724 776.1395 34.908063 771.15625 15.71875 771.15625 C 15.166966 771.15625 14.612333 771.1793 14.0625 771.1875 C 4.0720662 734.92652 -29.125903 708.28125 -68.5625 708.28125 C -75.054204 708.28125 -81.390008 709.00751 -87.46875 710.375 C -91.524075 704.24166 -97.37311 699.40476 -104.28125 696.625 C -96.473201 684.39558 -91.9375 669.86662 -91.9375 654.28125 C -91.9375 610.76568 -127.20318 575.5 -170.71875 575.5 z "
       transform="translate(0,28.362183)"
       id="path3912"
       inkscape:export-filename="C:\xampp\htdocs\nurd\images\cloud-3.png"
       inkscape:export-xdpi="90"
       inkscape:export-ydpi="90" />
  </g>
  <g
     inkscape:groupmode="layer"
     id="layer4"
     inkscape:label="game cloud">
    <path
       style="color:#000000;fill:url(#linearGradient4335);fill-opacity:1;fill-rule:nonzero;stroke:url(#linearGradient4317);stroke-width:8;stroke-linecap:butt;stroke-linejoin:miter;stroke-miterlimit:4;stroke-opacity:1;stroke-dasharray:none;stroke-dashoffset:0;marker:none;visibility:visible;display:inline;overflow:visible;enable-background:accumulate;opacity:0.73893805000000001"
       d="M 774.40625 11.15625 C 746.56339 11.86165 722.37832 27.19743 709.1875 49.75 C 690.4853 50.09711 674.71151 62.38842 669.21875 79.34375 C 666.25937 78.64571 663.17256 78.28125 660 78.28125 C 651.55264 78.28125 643.70676 80.90535 637.25 85.375 C 625.80454 61.74165 601.58326 45.4375 573.5625 45.4375 C 547.97329 45.4375 525.57063 59.01674 513.15625 79.375 C 507.81521 80.96505 503.18322 84.21009 499.84375 88.5 C 490.01751 78.65787 476.44396 72.5625 461.4375 72.5625 C 451.61994 72.5625 442.41484 75.1918 434.46875 79.75 C 433.87921 79.7327 433.28395 79.71875 432.6875 79.71875 C 418.58837 79.71875 406.36479 84.60891 400.125 91.78125 C 389.35983 82.48279 375.34127 76.84375 360 76.84375 C 326.07394 76.84375 298.5625 104.35519 298.5625 138.28125 C 298.5625 168.163 319.91852 193.05089 348.1875 198.5625 C 339.59088 207.32477 334.28125 219.31762 334.28125 232.5625 C 334.28125 245.00119 338.9666 256.34463 346.65625 264.9375 C 342.38556 274.46913 340 285.03547 340 296.15625 C 340 308.49258 342.93419 320.12115 348.125 330.4375 C 325.0225 347.32874 310 374.62652 310 405.4375 C 310 441.87188 330.9897 473.38738 361.53125 488.59375 C 360.54452 492.13756 360 495.86039 360 499.71875 C 360 513.13692 366.39023 525.05396 376.28125 532.625 C 377.08096 537.25813 378.71061 541.6068 381.03125 545.5 C 375.89523 552.48369 372.84375 561.10378 372.84375 570.4375 C 372.84375 573.21497 373.14345 575.90387 373.65625 578.53125 C 371.98032 578.38711 370.27578 578.28125 368.5625 578.28125 C 336.21439 578.28125 310 604.49564 310 636.84375 C 310 669.19186 336.21439 695.4375 368.5625 695.4375 C 369.76466 695.4375 370.97204 695.3839 372.15625 695.3125 C 370.7584 700.82946 370 706.61095 370 712.5625 C 370 751.22243 401.34007 782.5625 440 782.5625 C 460.6103 782.5625 479.12756 773.64382 491.9375 759.46875 C 498.07853 761.47167 504.62784 762.5625 511.4375 762.5625 C 535.83905 762.5625 556.95947 748.66192 567.375 728.34375 C 569.98931 729.2392 572.80089 729.71875 575.71875 729.71875 C 589.92036 729.71875 601.4375 718.20161 601.4375 704 C 601.4375 703.20764 601.3826 702.43033 601.3125 701.65625 C 603.34131 698.60271 605.00525 695.27898 606.21875 691.75 C 610.12022 692.28741 614.18026 692.5625 618.34375 692.5625 C 630.65087 692.5625 642.01753 690.0974 651.21875 685.90625 C 656.27199 687.83422 662.0352 689.0906 668.21875 689.53125 C 674.4973 702.32441 687.63126 711.15625 702.84375 711.15625 C 715.48327 711.15625 726.74635 705.08188 733.78125 695.6875 C 754.89327 712.51144 781.62479 722.5625 810.71875 722.5625 C 878.96536 722.5625 934.28125 667.24661 934.28125 599 C 934.28125 568.4977 923.22359 540.58536 904.90625 519.03125 C 909.97376 509.16356 912.84375 498.01208 912.84375 486.15625 C 912.84375 480.3558 912.13805 474.71722 910.84375 469.3125 C 915.58786 465.00063 918.5625 458.75964 918.5625 451.84375 C 918.5625 447.711 917.49337 443.8459 915.625 440.46875 C 927.8873 430.51569 935.71875 415.30525 935.71875 398.28125 C 935.71875 377.04459 923.51864 358.67003 905.75 349.75 C 908.50324 341.18081 910 332.04591 910 322.5625 C 910 303.56637 904.02415 285.98524 893.84375 271.5625 C 906.55248 263.7807 915.15868 249.9898 915.6875 234.125 C 933.36585 226.4177 945.71875 208.79842 945.71875 188.28125 C 945.71875 161.47737 924.61668 139.6047 898.125 138.34375 C 900.20447 135.26573 901.4375 131.5567 901.4375 127.5625 C 901.4375 122.64882 899.58799 118.1868 896.5625 114.78125 C 897.86534 111.2001 898.5625 107.31278 898.5625 103.28125 C 898.5625 84.740261 883.54099 69.71875 865 69.71875 C 860.55313 69.71875 856.32156 70.58599 852.4375 72.15625 C 844.73657 37.25903 813.64994 11.15625 776.4375 11.15625 C 775.76564 11.15625 775.07404 11.13935 774.40625 11.15625 z "
       id="path4156"
       inkscape:export-filename="C:\xampp\htdocs\nurd\images\board.png"
       inkscape:export-xdpi="90"
       inkscape:export-ydpi="90" />
  </g>
  <g
     inkscape:groupmode="layer"
     id="layer5"
     inkscape:label="title" />
  <g
     inkscape:groupmode="layer"
     id="layer6"
     inkscape:label="names">
    <path
       style="color:#000000;fill:url(#linearGradient4591);fill-opacity:1;fill-rule:nonzero;stroke:#000000;stroke-width:0;stroke-linecap:butt;stroke-linejoin:miter;stroke-miterlimit:4;stroke-opacity:1;stroke-dasharray:none;stroke-dashoffset:0;marker:none;visibility:visible;display:inline;overflow:visible;enable-background:accumulate"
       d="m 19.633928,-16.549107 c -5.522848,0 -9.9999997,4.477152 -9.9999997,10 0,5.404308 4.2974127,9.813482 9.6562497,10 l 0,0.21875 c -5.358385,0.187015 -9.6562497,4.564767 -9.6562497,9.96875 0,5.101996 3.8448847,9.294317 8.7812497,9.90625 -4.936815,0.61152 -8.7812497,4.803934 -8.7812497,9.90625 0,5.522848 4.4771517,10 9.9999997,10 5.522848,0 10,-4.477152 10,-10 0,5.522848 4.477153,10 10.000003,10 5.52285,0 10,-4.477152 10,-10 0,5.522848 4.47715,10 10,10 5.52285,0 10,-4.477152 10,-10 0,-5.397156 -4.2761,-9.771339 -9.625,-9.96875 l 0,-0.03125 c 5.3493,-0.196975 9.625,-4.602557 9.625,-10 0,-5.397156 -4.2761,-9.771339 -9.625,-9.96875 l 0,-0.0625 c 5.18867,-0.367076 9.28125,-4.686649 9.28125,-9.96875 0,-5.522848 -4.47715,-10 -10,-10 -5.22065,0 -9.48406,4.022238 -9.9375,9.125 l -0.3125,0 c -0.45344,-5.102762 -4.71685,-9.125 -9.9375,-9.125 -4.74359,0 -8.692266,3.318542 -9.718753,7.7499998 -1.026487,-4.4314578 -5.006413,-7.7499998 -9.75,-7.7499998 z"
       id="rect4558"
       inkscape:connector-curvature="0"
       inkscape:export-filename="C:\xampp\htdocs\nurd\images\cloud-border.png"
       inkscape:export-xdpi="90"
       inkscape:export-ydpi="90" />
  </g>
</svg>
